<svg width="2449" height="720" viewBox="0 0 2449 720" fill="none" xmlns="http://www.w3.org/2000/svg">
<path d="M0 0H720V720H0V0Z" fill="url(#paint0_linear)"/>
<path d="M516.183 479.596L359.442 172L202.702 479.596L169 547H243.893L278.13 479.596L359.442 319.646L441.29 479.596L475.526 547H550.419L516.183 479.596Z" fill="white"/>
<path d="M1163.5 182H1201.5L1346.5 537H1298.5L1256.5 433H1107.5L1066 537H1018L1163.5 182ZM1246.5 398L1182.5 234L1116.5 398H1246.5ZM1381.3 608C1385.63 608.667 1389.97 609.167 1394.3 609.5C1398.63 609.833 1401.97 610 1404.3 610C1408.3 610 1411.8 609 1414.8 607C1418.13 605.333 1421.3 601.833 1424.3 596.5C1427.63 591.167 1431.3 583.667 1435.3 574C1439.3 564.667 1444.3 552.333 1450.3 537L1339.8 276H1385.3L1474.3 497.5L1555.3 276H1597.3L1470.3 605.5C1465.63 617.167 1457.8 627.333 1446.8 636C1436.13 645 1421.3 649.5 1402.3 649.5C1399.3 649.5 1396.13 649.333 1392.8 649C1389.8 648.667 1385.97 648 1381.3 647V608ZM1722.26 542C1694.93 542 1674.26 532.833 1660.26 514.5C1646.26 496.167 1639.26 468.833 1639.26 432.5V276H1683.26V424C1683.26 477.333 1701.76 504 1738.76 504C1756.76 504 1773.6 498.333 1789.26 487C1805.26 475.333 1817.1 459.5 1824.76 439.5V276H1868.76V483C1868.76 493.333 1873.43 498.667 1882.76 499V537C1877.76 537.667 1873.76 538 1870.76 538C1868.1 538.333 1865.43 538.5 1862.76 538.5C1854.1 538.5 1846.76 536 1840.76 531C1835.1 525.667 1832.1 519.167 1831.76 511.5L1830.76 481C1819.1 500.667 1803.76 515.833 1784.76 526.5C1765.76 536.833 1744.93 542 1722.26 542ZM2033.55 542C2012.55 542 1991.89 538.833 1971.55 532.5C1951.22 525.833 1933.72 516.333 1919.05 504L1938.05 474.5C1953.39 486.167 1968.72 495 1984.05 501C1999.39 506.667 2015.55 509.5 2032.55 509.5C2051.55 509.5 2066.55 505.833 2077.55 498.5C2088.89 490.833 2094.55 480.167 2094.55 466.5C2094.55 460.167 2093.05 454.833 2090.05 450.5C2087.05 445.833 2082.55 441.833 2076.55 438.5C2070.55 435.167 2062.89 432.167 2053.55 429.5C2044.22 426.833 2033.39 424 2021.05 421C2005.39 417 1991.89 413.167 1980.55 409.5C1969.22 405.833 1959.89 401.5 1952.55 396.5C1945.22 391.5 1939.89 385.5 1936.55 378.5C1933.22 371.5 1931.55 362.833 1931.55 352.5C1931.55 339.5 1934.05 328 1939.05 318C1944.39 307.667 1951.55 299.167 1960.55 292.5C1969.55 285.5 1980.05 280.333 1992.05 277C2004.39 273.333 2017.55 271.5 2031.55 271.5C2051.22 271.5 2069.55 274.667 2086.55 281C2103.55 287.333 2117.89 295.667 2129.55 306L2109.55 332.5C2098.55 322.833 2086.22 315.667 2072.55 311C2058.89 306 2044.89 303.5 2030.55 303.5C2014.55 303.5 2000.89 307 1989.55 314C1978.55 320.667 1973.05 331.5 1973.05 346.5C1973.05 352.5 1974.05 357.5 1976.05 361.5C1978.39 365.5 1982.05 369 1987.05 372C1992.05 375 1998.39 377.667 2006.05 380C2014.05 382.333 2023.55 384.833 2034.55 387.5C2051.89 391.5 2066.89 395.667 2079.55 400C2092.55 404 2103.22 408.833 2111.55 414.5C2120.22 420.167 2126.55 426.833 2130.55 434.5C2134.89 442.167 2137.05 451.5 2137.05 462.5C2137.05 486.833 2127.72 506.167 2109.05 520.5C2090.39 534.833 2065.22 542 2033.55 542ZM2415.63 537H2371.63V391C2371.63 364 2366.96 344 2357.63 331C2348.29 317.667 2334.63 311 2316.63 311C2307.96 311 2299.29 312.833 2290.63 316.5C2281.96 319.833 2273.79 324.5 2266.13 330.5C2258.79 336.5 2252.13 343.667 2246.13 352C2240.46 360.333 2236.13 369.5 2233.13 379.5V537H2189.13V172H2233.13V332C2243.46 313 2257.46 298.167 2275.13 287.5C2292.79 276.833 2312.13 271.5 2333.13 271.5C2348.46 271.5 2361.46 274.333 2372.13 280C2382.79 285.667 2391.29 293.333 2397.63 303C2403.96 312.667 2408.46 324.333 2411.13 338C2414.13 351.333 2415.63 365.667 2415.63 381V537Z" fill="#333333"/>
<defs>
<linearGradient id="paint0_linear" x1="6" y1="8" x2="772" y2="727.5" gradientUnits="userSpaceOnUse">
<stop stop-color="#8261EE"/>
<stop offset="0.999364" stop-color="#FF589E"/>
<stop offset="0.9999" stop-color="#FF589E"/>
</linearGradient>
</defs>
</svg>
