<svg width="2700" height="829" viewBox="0 0 2700 829" fill="none" xmlns="http://www.w3.org/2000/svg">
<path d="M0 134C0 89.8172 35.8172 54 80 54H640C684.183 54 720 89.8172 720 134V694C720 738.183 684.183 774 640 774H80C35.8172 774 0 738.183 0 694V134Z" fill="url(#paint0_linear)"/>
<path d="M516.183 533.596L359.442 226L202.702 533.596L169 601H243.893L278.13 533.596L359.442 373.646L441.29 533.596L475.526 601H550.419L516.183 533.596Z" fill="white"/>
<path d="M1288.95 519.75H1121.75L1090.95 605H1038.15L1176.75 223.85H1234.5L1372.55 605H1319.75L1288.95 519.75ZM1274.65 479.05L1205.35 285.45L1136.05 479.05H1274.65ZM1692.56 303.6L1511.06 746.9H1459.36L1518.76 601.7L1397.21 303.6H1452.76L1547.36 547.8L1640.86 303.6H1692.56ZM2010.17 303.6V605H1960.12V560.45C1950.58 575.85 1937.2 587.95 1919.97 596.75C1903.1 605.183 1884.4 609.4 1863.87 609.4C1840.4 609.4 1819.32 604.633 1800.62 595.1C1781.92 585.2 1767.07 570.533 1756.07 551.1C1745.43 531.667 1740.12 508.017 1740.12 480.15V303.6H1789.62V473.55C1789.62 503.25 1797.13 526.167 1812.17 542.3C1827.2 558.067 1847.73 565.95 1873.77 565.95C1900.53 565.95 1921.62 557.7 1937.02 541.2C1952.42 524.7 1960.12 500.683 1960.12 469.15V303.6H2010.17ZM2201.37 609.95C2178.27 609.95 2157.56 606.1 2139.22 598.4C2120.89 590.333 2106.41 579.333 2095.77 565.4C2085.14 551.1 2079.27 534.783 2078.17 516.45H2129.87C2131.34 531.483 2138.31 543.767 2150.77 553.3C2163.61 562.833 2180.29 567.6 2200.82 567.6C2219.89 567.6 2234.92 563.383 2245.92 554.95C2256.92 546.517 2262.42 535.883 2262.42 523.05C2262.42 509.85 2256.56 500.133 2244.82 493.9C2233.09 487.3 2214.94 480.883 2190.37 474.65C2168.01 468.783 2149.67 462.917 2135.37 457.05C2121.44 450.817 2109.34 441.833 2099.07 430.1C2089.17 418 2084.22 402.233 2084.22 382.8C2084.22 367.4 2088.81 353.283 2097.97 340.45C2107.14 327.617 2120.16 317.533 2137.02 310.2C2153.89 302.5 2173.14 298.65 2194.77 298.65C2228.14 298.65 2255.09 307.083 2275.62 323.95C2296.16 340.817 2307.16 363.917 2308.62 393.25H2258.57C2257.47 377.483 2251.06 364.833 2239.32 355.3C2227.96 345.767 2212.56 341 2193.12 341C2175.16 341 2160.86 344.85 2150.22 352.55C2139.59 360.25 2134.27 370.333 2134.27 382.8C2134.27 392.7 2137.39 400.95 2143.62 407.55C2150.22 413.783 2158.29 418.917 2167.82 422.95C2177.72 426.617 2191.29 430.833 2208.52 435.6C2230.16 441.467 2247.76 447.333 2261.32 453.2C2274.89 458.7 2286.44 467.133 2295.97 478.5C2305.87 489.867 2311.01 504.717 2311.37 523.05C2311.37 539.55 2306.79 554.4 2297.62 567.6C2288.46 580.8 2275.44 591.25 2258.57 598.95C2242.07 606.283 2223.01 609.95 2201.37 609.95ZM2531.63 298.1C2554.36 298.1 2574.89 303.05 2593.23 312.95C2611.56 322.483 2625.86 336.967 2636.13 356.4C2646.76 375.833 2652.08 399.483 2652.08 427.35V605H2602.58V434.5C2602.58 404.433 2595.06 381.517 2580.03 365.75C2564.99 349.617 2544.46 341.55 2518.43 341.55C2492.03 341.55 2470.94 349.8 2455.18 366.3C2439.78 382.8 2432.08 406.817 2432.08 438.35V605H2382.03V198H2432.08V346.5C2441.98 331.1 2455.54 319.183 2472.78 310.75C2490.38 302.317 2509.99 298.1 2531.63 298.1Z" fill="#333333"/>
<path d="M1288.95 519.75H1121.75L1090.95 605H1038.15L1176.75 223.85H1234.5L1372.55 605H1319.75L1288.95 519.75ZM1274.65 479.05L1205.35 285.45L1136.05 479.05H1274.65ZM1692.56 303.6L1511.06 746.9H1459.36L1518.76 601.7L1397.21 303.6H1452.76L1547.36 547.8L1640.86 303.6H1692.56ZM2010.17 303.6V605H1960.12V560.45C1950.58 575.85 1937.2 587.95 1919.97 596.75C1903.1 605.183 1884.4 609.4 1863.87 609.4C1840.4 609.4 1819.32 604.633 1800.62 595.1C1781.92 585.2 1767.07 570.533 1756.07 551.1C1745.43 531.667 1740.12 508.017 1740.12 480.15V303.6H1789.62V473.55C1789.62 503.25 1797.13 526.167 1812.17 542.3C1827.2 558.067 1847.73 565.95 1873.77 565.95C1900.53 565.95 1921.62 557.7 1937.02 541.2C1952.42 524.7 1960.12 500.683 1960.12 469.15V303.6H2010.17ZM2201.37 609.95C2178.27 609.95 2157.56 606.1 2139.22 598.4C2120.89 590.333 2106.41 579.333 2095.77 565.4C2085.14 551.1 2079.27 534.783 2078.17 516.45H2129.87C2131.34 531.483 2138.31 543.767 2150.77 553.3C2163.61 562.833 2180.29 567.6 2200.82 567.6C2219.89 567.6 2234.92 563.383 2245.92 554.95C2256.92 546.517 2262.42 535.883 2262.42 523.05C2262.42 509.85 2256.56 500.133 2244.82 493.9C2233.09 487.3 2214.94 480.883 2190.37 474.65C2168.01 468.783 2149.67 462.917 2135.37 457.05C2121.44 450.817 2109.34 441.833 2099.07 430.1C2089.17 418 2084.22 402.233 2084.22 382.8C2084.22 367.4 2088.81 353.283 2097.97 340.45C2107.14 327.617 2120.16 317.533 2137.02 310.2C2153.89 302.5 2173.14 298.65 2194.77 298.65C2228.14 298.65 2255.09 307.083 2275.62 323.95C2296.16 340.817 2307.16 363.917 2308.62 393.25H2258.57C2257.47 377.483 2251.06 364.833 2239.32 355.3C2227.96 345.767 2212.56 341 2193.12 341C2175.16 341 2160.86 344.85 2150.22 352.55C2139.59 360.25 2134.27 370.333 2134.27 382.8C2134.27 392.7 2137.39 400.95 2143.62 407.55C2150.22 413.783 2158.29 418.917 2167.82 422.95C2177.72 426.617 2191.29 430.833 2208.52 435.6C2230.16 441.467 2247.76 447.333 2261.32 453.2C2274.89 458.7 2286.44 467.133 2295.97 478.5C2305.87 489.867 2311.01 504.717 2311.37 523.05C2311.37 539.55 2306.79 554.4 2297.62 567.6C2288.46 580.8 2275.44 591.25 2258.57 598.95C2242.07 606.283 2223.01 609.95 2201.37 609.95ZM2531.63 298.1C2554.36 298.1 2574.89 303.05 2593.23 312.95C2611.56 322.483 2625.86 336.967 2636.13 356.4C2646.76 375.833 2652.08 399.483 2652.08 427.35V605H2602.58V434.5C2602.58 404.433 2595.06 381.517 2580.03 365.75C2564.99 349.617 2544.46 341.55 2518.43 341.55C2492.03 341.55 2470.94 349.8 2455.18 366.3C2439.78 382.8 2432.08 406.817 2432.08 438.35V605H2382.03V198H2432.08V346.5C2441.98 331.1 2455.54 319.183 2472.78 310.75C2490.38 302.317 2509.99 298.1 2531.63 298.1Z" fill="url(#paint1_linear)"/>
<defs>
<linearGradient id="paint0_linear" x1="6" y1="62" x2="772" y2="781.5" gradientUnits="userSpaceOnUse">
<stop stop-color="#8261EE"/>
<stop offset="0.999364" stop-color="#FF589E"/>
<stop offset="0.9999" stop-color="#FF589E"/>
</linearGradient>
<linearGradient id="paint1_linear" x1="1034" y1="9.21053" x2="1761.59" y2="1394.28" gradientUnits="userSpaceOnUse">
<stop stop-color="#8261EE"/>
<stop offset="0.999364" stop-color="#FF589E"/>
<stop offset="0.9999" stop-color="#FF589E"/>
</linearGradient>
</defs>
</svg>
