<svg width="183" height="50" viewBox="0 0 183 50" fill="none" xmlns="http://www.w3.org/2000/svg">
<path d="M165.752 33.7808L165.737 36.3337H152.604V15.143H165.737V17.6959H155.761V24.4103H163.789V26.8746H155.761V33.7808H165.752Z" fill="#2C6AED"/>
<path d="M178.107 24.971C177.635 24.3512 177.124 23.9184 176.573 23.6724C176.032 23.4265 175.422 23.3035 174.743 23.3035C173.425 23.3035 172.401 23.7806 171.673 24.7349C170.955 25.6793 170.596 27.0615 170.596 28.8816C170.596 29.8358 170.675 30.6524 170.832 31.3312C171 32.0001 171.236 32.5511 171.541 32.9839C171.855 33.407 172.239 33.7218 172.692 33.9284C173.144 34.1251 173.656 34.2235 174.226 34.2235C175.063 34.2235 175.786 34.0366 176.396 33.6627C177.006 33.2889 177.576 32.7626 178.107 32.0838V24.971ZM181 14.5527V36.3337H179.258C178.855 36.3337 178.604 36.1419 178.506 35.7582L178.255 34.0317C177.615 34.7892 176.887 35.3991 176.071 35.8615C175.264 36.314 174.33 36.5403 173.267 36.5403C172.411 36.5403 171.634 36.3731 170.936 36.0386C170.247 35.7041 169.657 35.2171 169.165 34.5777C168.673 33.9284 168.294 33.1266 168.028 32.1723C167.763 31.218 167.63 30.1211 167.63 28.8816C167.63 27.7699 167.778 26.7369 168.073 25.7826C168.368 24.8284 168.796 24.002 169.357 23.3035C169.917 22.605 170.596 22.059 171.393 21.6655C172.19 21.2621 173.09 21.0605 174.094 21.0605C174.999 21.0605 175.766 21.208 176.396 21.5032C177.035 21.7983 177.606 22.2164 178.107 22.7575V14.5527H181Z" fill="#2C6AED"/>
<path d="M74.2446 15.1438V36.3345H71.4999V21.2531C71.4999 21.0268 71.5048 20.7858 71.5146 20.53C71.5343 20.2742 71.554 20.0135 71.5737 19.7479L64.5199 32.6896C64.274 33.1716 63.8952 33.4126 63.3836 33.4126H62.9409C62.4294 33.4126 62.0555 33.1716 61.8194 32.6896L54.6329 19.7036C54.6919 20.2545 54.7214 20.771 54.7214 21.2531V36.3345H51.9619V15.1438H54.2935C54.5689 15.1438 54.7805 15.1733 54.928 15.2323C55.0854 15.2815 55.233 15.4291 55.3707 15.675L62.454 28.3658C62.5917 28.6216 62.7196 28.8922 62.8376 29.1774C62.9557 29.4627 63.0688 29.748 63.1771 30.0333C63.3836 29.4529 63.6247 28.8921 63.9001 28.3511L70.8506 15.675C70.9785 15.4291 71.1162 15.2815 71.2638 15.2323C71.4212 15.1733 71.6376 15.1438 71.9131 15.1438H74.2446Z" fill="#0E3EA4"/>
<path d="M81.6763 21.3416V36.3345H78.7987V21.3416H81.6763ZM82.2223 16.708C82.2223 16.9736 82.1682 17.2294 82.0599 17.4753C81.9517 17.7114 81.8042 17.923 81.6172 18.1099C81.4402 18.287 81.2286 18.4296 80.9827 18.5378C80.7368 18.6362 80.481 18.6854 80.2154 18.6854C79.9497 18.6854 79.6989 18.6362 79.4628 18.5378C79.2266 18.4296 79.0151 18.287 78.8282 18.1099C78.6511 17.923 78.5085 17.7114 78.4003 17.4753C78.3019 17.2294 78.2527 16.9736 78.2527 16.708C78.2527 16.4325 78.3019 16.1767 78.4003 15.9406C78.5085 15.6947 78.6511 15.4832 78.8282 15.3061C79.0151 15.1192 79.2266 14.9765 79.4628 14.8781C79.6989 14.7699 79.9497 14.7158 80.2154 14.7158C80.481 14.7158 80.7368 14.7699 80.9827 14.8781C81.2286 14.9765 81.4402 15.1192 81.6172 15.3061C81.8042 15.4832 81.9517 15.6947 82.0599 15.9406C82.1682 16.1767 82.2223 16.4325 82.2223 16.708Z" fill="#0E3EA4"/>
<path d="M94.6818 23.924C94.6031 24.0519 94.5195 24.1454 94.431 24.2044C94.3424 24.2536 94.2293 24.2782 94.0915 24.2782C93.9341 24.2782 93.7571 24.2241 93.5603 24.1159C93.3734 24.0077 93.1422 23.8896 92.8667 23.7617C92.6011 23.6338 92.2863 23.5158 91.9223 23.4076C91.5583 23.2993 91.1254 23.2452 90.6237 23.2452C90.2105 23.2452 89.8318 23.2993 89.4874 23.4076C89.153 23.5059 88.8677 23.6486 88.6315 23.8355C88.3954 24.0126 88.2134 24.229 88.0855 24.4848C87.9577 24.7307 87.8937 24.9964 87.8937 25.2817C87.8937 25.6555 88.0019 25.9654 88.2184 26.2113C88.4446 26.4573 88.7348 26.6688 89.089 26.8459C89.453 27.023 89.8613 27.1853 90.3138 27.3329C90.7762 27.4706 91.2435 27.6182 91.7157 27.7756C92.1978 27.933 92.6651 28.115 93.1176 28.3216C93.58 28.5183 93.9883 28.7692 94.3424 29.0742C94.7064 29.3693 94.9966 29.7284 95.2131 30.1514C95.4393 30.5744 95.5525 31.0909 95.5525 31.7009C95.5525 32.3993 95.4246 33.0486 95.1688 33.6487C94.9228 34.239 94.5539 34.7506 94.062 35.1835C93.58 35.6163 92.9799 35.9557 92.2617 36.2017C91.5435 36.4476 90.7221 36.5706 89.7973 36.5706C88.7644 36.5706 87.8101 36.3984 86.9345 36.0541C86.059 35.7098 85.326 35.272 84.7358 34.7407L85.4146 33.634C85.4933 33.4963 85.5917 33.393 85.7097 33.3241C85.8278 33.2454 85.9852 33.206 86.1819 33.206C86.3688 33.206 86.5607 33.2749 86.7574 33.4126C86.9542 33.5504 87.1903 33.7029 87.4658 33.8701C87.7412 34.0275 88.0757 34.1751 88.4692 34.3128C88.8627 34.4407 89.3546 34.5046 89.9449 34.5046C90.4368 34.5046 90.8647 34.4456 91.2287 34.3276C91.5927 34.1997 91.8928 34.0324 92.1289 33.8258C92.3748 33.6094 92.5568 33.3634 92.6749 33.088C92.793 32.8125 92.852 32.5223 92.852 32.2173C92.852 31.8238 92.7388 31.4992 92.5126 31.2434C92.2961 30.9778 92.0059 30.7515 91.6419 30.5646C91.2878 30.3777 90.8795 30.2153 90.4171 30.0776C89.9547 29.9399 89.4825 29.7923 89.0005 29.6349C88.5184 29.4775 88.0462 29.2955 87.5838 29.0889C87.1214 28.8823 86.7083 28.6216 86.3442 28.3068C85.9901 27.992 85.6999 27.6083 85.4736 27.1558C85.2572 26.7032 85.149 26.1523 85.149 25.503C85.149 24.9226 85.267 24.3667 85.5031 23.8355C85.7491 23.3043 86.0983 22.837 86.5508 22.4336C87.0132 22.0303 87.5789 21.7105 88.2479 21.4744C88.9267 21.2285 89.699 21.1055 90.5647 21.1055C91.5583 21.1055 92.4535 21.2629 93.2504 21.5777C94.0571 21.8925 94.7458 22.3254 95.3164 22.8763L94.6818 23.924Z" fill="#0E3EA4"/>
<path d="M107.508 23.924C107.429 24.0519 107.345 24.1454 107.257 24.2044C107.168 24.2536 107.055 24.2782 106.917 24.2782C106.76 24.2782 106.583 24.2241 106.386 24.1159C106.199 24.0077 105.968 23.8896 105.692 23.7617C105.427 23.6338 105.112 23.5158 104.748 23.4076C104.384 23.2993 103.951 23.2452 103.449 23.2452C103.036 23.2452 102.657 23.2993 102.313 23.4076C101.979 23.5059 101.693 23.6486 101.457 23.8355C101.221 24.0126 101.039 24.229 100.911 24.4848C100.783 24.7307 100.719 24.9964 100.719 25.2817C100.719 25.6555 100.828 25.9654 101.044 26.2113C101.27 26.4573 101.561 26.6688 101.915 26.8459C102.279 27.023 102.687 27.1853 103.14 27.3329C103.602 27.4706 104.069 27.6182 104.541 27.7756C105.023 27.933 105.491 28.115 105.943 28.3216C106.406 28.5183 106.814 28.7692 107.168 29.0742C107.532 29.3693 107.822 29.7284 108.039 30.1514C108.265 30.5744 108.378 31.0909 108.378 31.7009C108.378 32.3993 108.25 33.0486 107.994 33.6487C107.749 34.239 107.38 34.7506 106.888 35.1835C106.406 35.6163 105.806 35.9557 105.087 36.2017C104.369 36.4476 103.548 36.5706 102.623 36.5706C101.59 36.5706 100.636 36.3984 99.7602 36.0541C98.8847 35.7098 98.1517 35.272 97.5615 34.7407L98.2403 33.634C98.319 33.4963 98.4174 33.393 98.5354 33.3241C98.6535 33.2454 98.8109 33.206 99.0076 33.206C99.1945 33.206 99.3864 33.2749 99.5831 33.4126C99.7799 33.5504 100.016 33.7029 100.291 33.8701C100.567 34.0275 100.901 34.1751 101.295 34.3128C101.688 34.4407 102.18 34.5046 102.771 34.5046C103.262 34.5046 103.69 34.4456 104.054 34.3276C104.418 34.1997 104.718 34.0324 104.955 33.8258C105.201 33.6094 105.383 33.3634 105.501 33.088C105.619 32.8125 105.678 32.5223 105.678 32.2173C105.678 31.8238 105.565 31.4992 105.338 31.2434C105.122 30.9778 104.832 30.7515 104.468 30.5646C104.113 30.3777 103.705 30.2153 103.243 30.0776C102.78 29.9399 102.308 29.7923 101.826 29.6349C101.344 29.4775 100.872 29.2955 100.41 29.0889C99.9471 28.8823 99.534 28.6216 99.17 28.3068C98.8158 27.992 98.5256 27.6083 98.2993 27.1558C98.0829 26.7032 97.9747 26.1523 97.9747 25.503C97.9747 24.9226 98.0927 24.3667 98.3288 23.8355C98.5748 23.3043 98.924 22.837 99.3765 22.4336C99.8389 22.0303 100.405 21.7105 101.074 21.4744C101.752 21.2285 102.525 21.1055 103.39 21.1055C104.384 21.1055 105.279 21.2629 106.076 21.5777C106.883 21.8925 107.571 22.3254 108.142 22.8763L107.508 23.924Z" fill="#0E3EA4"/>
<path d="M114.504 21.3416V36.3345H111.627V21.3416H114.504ZM115.05 16.708C115.05 16.9736 114.996 17.2294 114.888 17.4753C114.78 17.7114 114.632 17.923 114.445 18.1099C114.268 18.287 114.057 18.4296 113.811 18.5378C113.565 18.6362 113.309 18.6854 113.043 18.6854C112.778 18.6854 112.527 18.6362 112.291 18.5378C112.055 18.4296 111.843 18.287 111.656 18.1099C111.479 17.923 111.337 17.7114 111.228 17.4753C111.13 17.2294 111.081 16.9736 111.081 16.708C111.081 16.4325 111.13 16.1767 111.228 15.9406C111.337 15.6947 111.479 15.4832 111.656 15.3061C111.843 15.1192 112.055 14.9765 112.291 14.8781C112.527 14.7699 112.778 14.7158 113.043 14.7158C113.309 14.7158 113.565 14.7699 113.811 14.8781C114.057 14.9765 114.268 15.1192 114.445 15.3061C114.632 15.4832 114.78 15.6947 114.888 15.9406C114.996 16.1767 115.05 16.4325 115.05 16.708Z" fill="#0E3EA4"/>
<path d="M125.06 21.1055C126.162 21.1055 127.156 21.2875 128.041 21.6515C128.936 22.0057 129.694 22.5221 130.314 23.201C130.943 23.8699 131.425 24.6816 131.76 25.6358C132.094 26.5803 132.262 27.6427 132.262 28.8233C132.262 30.0038 132.094 31.0712 131.76 32.0255C131.425 32.9798 130.943 33.7914 130.314 34.4604C129.694 35.1293 128.936 35.6458 128.041 36.0098C127.156 36.364 126.162 36.5411 125.06 36.5411C123.949 36.5411 122.945 36.364 122.05 36.0098C121.164 35.6458 120.407 35.1293 119.777 34.4604C119.148 33.7914 118.661 32.9798 118.316 32.0255C117.982 31.0712 117.815 30.0038 117.815 28.8233C117.815 27.6427 117.982 26.5803 118.316 25.6358C118.661 24.6816 119.148 23.8699 119.777 23.201C120.407 22.5221 121.164 22.0057 122.05 21.6515C122.945 21.2875 123.949 21.1055 125.06 21.1055ZM125.06 34.298C126.477 34.298 127.534 33.8209 128.233 32.8666C128.931 31.9124 129.281 30.5695 129.281 28.838C129.281 27.1066 128.931 25.7637 128.233 24.8094C127.534 23.8453 126.477 23.3633 125.06 23.3633C123.624 23.3633 122.552 23.8453 121.843 24.8094C121.145 25.7637 120.796 27.1066 120.796 28.838C120.796 30.5695 121.145 31.9124 121.843 32.8666C122.552 33.8209 123.624 34.298 125.06 34.298Z" fill="#0E3EA4"/>
<path d="M138.174 23.4223C138.499 23.078 138.838 22.7632 139.192 22.4779C139.547 22.1926 139.92 21.9516 140.314 21.7548C140.717 21.5482 141.145 21.3908 141.598 21.2826C142.06 21.1645 142.552 21.1055 143.073 21.1055C143.9 21.1055 144.623 21.2432 145.243 21.5187C145.872 21.7941 146.399 22.1827 146.822 22.6845C147.245 23.1764 147.564 23.7716 147.781 24.47C147.997 25.1685 148.105 25.9408 148.105 26.7869V36.3345H145.213V26.7869C145.213 25.7145 144.967 24.8832 144.475 24.293C143.983 23.6929 143.231 23.3928 142.218 23.3928C141.48 23.3928 140.786 23.5699 140.137 23.924C139.497 24.2684 138.902 24.7406 138.351 25.3407V36.3345H135.474V21.3416H137.2C137.604 21.3416 137.854 21.5334 137.953 21.9171L138.174 23.4223Z" fill="#0E3EA4"/>
<path fill-rule="evenodd" clip-rule="evenodd" d="M3.46464 10.9707H10.6241C10.8839 10.9707 11.086 11.1728 11.086 11.4326V40.4747C11.086 40.7345 10.8839 40.9366 10.6241 40.9366H3.46464C3.20482 40.9366 3.00274 40.7345 3.00274 40.4747V11.4326C2.97387 11.1728 3.17596 10.9707 3.46464 10.9707Z" fill="#0E3EA4"/>
<path fill-rule="evenodd" clip-rule="evenodd" d="M14.5117 10.9707H21.6712C21.931 10.9707 22.1331 11.1728 22.1331 11.4326V40.4747C22.1331 40.7345 21.931 40.9366 21.6712 40.9366H14.5117C14.2519 40.9366 14.0498 40.7345 14.0498 40.4747V11.4326C14.0498 11.1728 14.2519 10.9707 14.5117 10.9707Z" fill="#1250D3"/>
<path fill-rule="evenodd" clip-rule="evenodd" d="M25.4458 12.6067L32.1735 10.158C32.4176 10.0691 32.6766 10.1899 32.7655 10.434L42.6985 37.7247C42.7873 37.9688 42.6666 38.2278 42.4224 38.3167L35.6947 40.7654C35.4505 40.8542 35.1915 40.7334 35.1027 40.4893L25.1697 13.1987C25.0808 12.9545 25.2016 12.6955 25.4458 12.6067Z" fill="#2C6AED"/>
</svg>
