<svg width="31" height="29" viewBox="0 0 31 29" fill="none" xmlns="http://www.w3.org/2000/svg">
<path fill-rule="evenodd" clip-rule="evenodd" d="M29.68 19.199C29.6181 19.604 29.429 19.9787 29.14 20.269L22 27.439C21.8141 27.6265 21.5929 27.7753 21.3492 27.8768C21.1055 27.9783 20.8441 28.0306 20.58 28.0306C20.316 28.0306 20.0546 27.9783 19.8109 27.8768C19.5672 27.7753 19.346 27.6265 19.16 27.439L16 24.279L9.33003 17.619L7.76003 16.069L6.34003 14.619C6.15167 14.4318 6.00248 14.2089 5.90118 13.9634C5.79988 13.7179 5.7485 13.4546 5.75003 13.189V6.05903C5.75003 5.52859 5.96075 5.01989 6.33582 4.64481C6.71089 4.26974 7.2196 4.05903 7.75003 4.05903H14.91C15.1735 4.05354 15.4355 4.1002 15.6809 4.1963C15.9263 4.2924 16.1503 4.43607 16.34 4.61903L29.13 17.439C29.3449 17.6514 29.506 17.9119 29.6 18.199C29.7204 18.5182 29.7481 18.8648 29.68 19.199Z" stroke="white" stroke-miterlimit="10"/>
<path d="M11.2402 11.0586C12.0687 11.0586 12.7402 10.387 12.7402 9.55859C12.7402 8.73017 12.0687 8.05859 11.2402 8.05859C10.4118 8.05859 9.74023 8.73017 9.74023 9.55859C9.74023 10.387 10.4118 11.0586 11.2402 11.0586Z" stroke="white" stroke-miterlimit="10"/>
<path fill-rule="evenodd" clip-rule="evenodd" d="M10.0001 8.02033V9.02033C8.3801 9.02033 7.7701 8.14033 7.0001 4.02033C6.2901 0.620333 2.7801 0.150333 1.4401 2.29033C0.370101 3.99033 1.4601 7.02033 3.0001 7.02033V8.02033C0.570101 8.02033 -0.869899 4.02033 0.580101 1.76033C2.4001 -1.11967 7.0901 -0.499666 8.0001 3.87033C8.6801 7.53033 9.0001 8.02033 10.0001 8.02033Z" fill="white"/>
</svg>
