<svg width="62" height="60" viewBox="0 0 62 60" fill="none" xmlns="http://www.w3.org/2000/svg">
<path d="M20.5834 1.84C22.6101 1.84 24.2901 2.08 25.6234 2.56C26.9568 2.98666 28.0501 3.54666 28.9034 4.24C29.9701 5.09333 30.7168 6.02667 31.1434 7.04C31.6234 8 31.8634 8.90666 31.8634 9.76C31.8634 11.0933 31.3834 12.1333 30.4234 12.88C29.5168 13.6267 28.5034 14 27.3834 14C26.3168 14 25.3568 13.6533 24.5034 12.96C23.6501 12.2667 23.2234 11.28 23.2234 10C23.2234 8.82666 23.6234 7.84 24.4234 7.04C25.2234 6.18666 26.2368 5.70666 27.4634 5.6C27.2501 4.90666 26.5834 4.32 25.4634 3.84C24.3968 3.30666 23.0368 3.04 21.3834 3.04C18.6634 3.04 16.4234 3.86666 14.6634 5.52C12.9568 7.12 12.1034 9.46666 12.1034 12.56C12.1034 14.0533 12.3701 15.5733 12.9034 17.12C13.4901 18.6667 14.5834 20.1867 16.1834 21.68C17.0901 21.52 18.0234 21.4133 18.9834 21.36C19.9434 21.2533 20.6634 21.2 21.1434 21.2C23.2768 21.2 24.3434 21.8133 24.3434 23.04C24.3434 23.52 24.1301 23.8933 23.7034 24.16C23.3301 24.4267 22.7968 24.56 22.1034 24.56C21.0901 24.56 20.0234 24.3467 18.9034 23.92C17.7834 23.44 16.9034 23.0667 16.2634 22.8C13.1701 23.7067 10.6634 25.2 8.74344 27.28C6.82344 29.3067 5.86344 32.1867 5.86344 35.92C5.86344 39.6 6.82344 42.72 8.74344 45.28C10.6634 47.84 13.2234 49.8133 16.4234 51.2C19.6768 52.5333 23.3034 53.2 27.3034 53.2C30.1301 53.2 32.7968 52.88 35.3034 52.24C37.8634 51.5467 40.1034 50.56 42.0234 49.28C43.9968 48 45.5434 46.48 46.6634 44.72C47.7834 42.9067 48.3434 40.8533 48.3434 38.56C48.3434 37.5467 48.1301 36.2667 47.7034 34.72C47.2768 33.12 46.3968 31.5733 45.0634 30.08C43.7301 28.5333 41.6768 27.3333 38.9034 26.48L39.8634 25.68C43.7568 26.8533 46.5301 28.7467 48.1834 31.36C49.8368 33.92 50.6634 36.8 50.6634 40C50.6634 43.2 49.7034 46.2667 47.7834 49.2C45.8634 52.1333 43.0901 54.5333 39.4634 56.4C35.8368 58.2133 31.4368 59.12 26.2634 59.12C21.6768 59.12 17.4101 58.32 13.4634 56.72C9.51677 55.12 6.34344 52.8267 3.94344 49.84C1.54344 46.8533 0.343438 43.3067 0.343438 39.2C0.343438 36.32 0.903438 33.8667 2.02344 31.84C3.14344 29.76 4.5301 28.0533 6.18344 26.72C7.83677 25.3867 9.4901 24.3733 11.1434 23.68C12.7968 22.9333 14.1301 22.4267 15.1434 22.16C12.4768 20.9867 10.4501 19.4667 9.06344 17.6C7.7301 15.7333 7.06344 13.8133 7.06344 11.84C7.06344 10.56 7.35677 9.33333 7.94344 8.16C8.5301 6.93333 9.38344 5.84 10.5034 4.88C11.6234 3.92 13.0101 3.17333 14.6634 2.64C16.3701 2.10666 18.3434 1.84 20.5834 1.84ZM49.7034 0.239995C53.0101 0.239995 55.7834 1.2 58.0234 3.12C60.2634 4.98666 61.3834 7.62667 61.3834 11.04C61.3834 13.76 60.6368 16.0533 59.1434 17.92C57.7034 19.7333 55.9168 21.1733 53.7834 22.24C52.5568 22.8267 50.9301 23.4667 48.9034 24.16C46.9301 24.8533 44.7968 25.5467 42.5034 26.24C40.2634 26.9333 38.1034 27.6267 36.0234 28.32C33.9968 28.96 32.3434 29.52 31.0634 30C29.0901 30.7467 27.4101 31.68 26.0234 32.8C24.6901 33.8667 24.0234 35.2533 24.0234 36.96C24.0234 38.3467 24.4234 39.52 25.2234 40.48C26.0234 41.44 26.9834 42.16 28.1034 42.64C29.2768 43.12 30.3701 43.36 31.3834 43.36C32.1301 43.36 33.0634 43.2267 34.1834 42.96C35.3568 42.64 36.0234 42.1867 36.1834 41.6C35.3301 41.44 34.4768 41.0667 33.6234 40.48C32.8234 39.84 32.4234 38.8533 32.4234 37.52C32.4234 36.24 32.8501 35.2267 33.7034 34.48C34.5568 33.7333 35.5968 33.36 36.8234 33.36C38.1034 33.36 39.1168 33.76 39.8634 34.56C40.6634 35.36 41.0634 36.4 41.0634 37.68C41.0634 39.1733 40.5568 40.4533 39.5434 41.52C38.5834 42.5333 37.3568 43.3067 35.8634 43.84C34.4234 44.32 32.9834 44.56 31.5434 44.56C30.0501 44.56 28.5301 44.24 26.9834 43.6C25.4368 42.96 24.1568 41.9733 23.1434 40.64C22.1301 39.2533 21.6234 37.44 21.6234 35.2C21.6234 32.4267 22.5568 30.1067 24.4234 28.24C26.2901 26.32 29.0368 24.7467 32.6634 23.52C34.2634 22.9867 36.2101 22.4 38.5034 21.76C40.7968 21.12 43.1434 20.4267 45.5434 19.68C47.9968 18.9333 50.2101 18.1067 52.1834 17.2C54.8501 15.9733 56.6634 14.72 57.6234 13.44C58.5834 12.16 59.0634 10.8533 59.0634 9.52C59.0634 7.22666 58.1301 5.30666 56.2634 3.76C54.4501 2.21333 52.2901 1.44 49.7834 1.44C49.1434 1.44 48.6101 1.49333 48.1834 1.6C47.7568 1.70667 47.4901 1.89333 47.3834 2.16C48.1301 2.53333 48.6901 3.06666 49.0634 3.76C49.4368 4.45333 49.6234 5.14667 49.6234 5.84C49.6234 6.96 49.1701 7.89333 48.2634 8.64C47.4101 9.38666 46.3701 9.76 45.1434 9.76C44.1301 9.76 43.1701 9.44 42.2634 8.8C41.3568 8.10667 40.9034 7.09333 40.9034 5.76C40.9034 4.37333 41.3568 3.28 42.2634 2.48C43.2234 1.68 44.3701 1.12 45.7034 0.799997C47.0901 0.426662 48.4234 0.239995 49.7034 0.239995Z" fill="#8261EE"/>
</svg>
