<svg version="1.1" viewBox="0.0 0.0 960.0 720.0" fill="none" stroke="none" stroke-linecap="square" stroke-miterlimit="10" xmlns:xlink="http://www.w3.org/1999/xlink" xmlns="http://www.w3.org/2000/svg"><clipPath id="p.0"><path d="m0 0l960.0 0l0 720.0l-960.0 0l0 -720.0z" clip-rule="nonzero"/></clipPath><g clip-path="url(#p.0)"><path fill="#000000" fill-opacity="0.0" d="m0 0l960.0 0l0 720.0l-960.0 0z" fill-rule="evenodd"/><path fill="#8261ee" d="m0 360.0l0 0c0 -198.82251 160.1481 -360.0 357.70078 -360.0l0 0c94.868164 0 185.85074 37.928463 252.93265 105.44156c67.08191 67.51309 104.76813 159.0805 104.76813 254.55844l0 0c0 198.82251 -160.14807 360.0 -357.70078 360.0l0 0c-197.55267 0 -357.70078 -161.17749 -357.70078 -360.0z" fill-rule="evenodd"/><path fill="#ff589e" d="m244.59842 360.0l0 0c0 -198.82251 160.1481 -360.0 357.70078 -360.0l0 0c94.868164 0 185.85077 37.928463 252.93268 105.44156c67.08191 67.51309 104.76813 159.0805 104.76813 254.55844l0 0c0 198.82251 -160.14807 360.0 -357.7008 360.0l0 0c-197.55267 0 -357.70078 -161.17749 -357.70078 -360.0z" fill-rule="evenodd"/></g></svg>