<svg id="b23676ff-4ab4-48d1-91a9-092864283dd6" data-name="Layer 1" xmlns="http://www.w3.org/2000/svg" viewBox="0 0 158.81 28.51">
  <defs>
    <style>
      .aa632fdb-b9a7-40a1-aac5-695eea10513c {
        fill: #8261ee;
      }

      .b497e5aa-d830-4bc8-9978-e510cd3a0119 {
        fill: #ff589e;
      }

      .a5a4a148-0a41-49cd-872f-d1f028450e2f {
        fill: #333;
      }
    </style>
  </defs>
  <g>
    <g>
      <circle class="aa632fdb-b9a7-40a1-aac5-695eea10513c" cx="14.25" cy="14.25" r="14.25"/>
      <circle class="b497e5aa-d830-4bc8-9978-e510cd3a0119" cx="25.3" cy="14.25" r="14.25"/>
    </g>
    <g>
      <path class="a5a4a148-0a41-49cd-872f-d1f028450e2f" d="M52.7,17.31l-1.4,4.24H49.5L54.08,8.07h2.1l4.6,13.48H58.92l-1.44-4.24ZM57.12,16,55.8,12.07c-.3-.88-.5-1.68-.7-2.46h0c-.2.8-.42,1.62-.68,2.44L53.06,16Z" transform="translate(0 -0.75)"/>
      <path class="a5a4a148-0a41-49cd-872f-d1f028450e2f" d="M62.92,11.87,65,17.59c.22.64.46,1.4.62,2h0c.18-.58.38-1.32.62-2l1.92-5.68H70.1l-2.64,6.9c-1.26,3.32-2.12,5-3.32,6.06A4.77,4.77,0,0,1,62,26l-.44-1.48a4.66,4.66,0,0,0,1.54-.86,5.34,5.34,0,0,0,1.48-2,1.26,1.26,0,0,0,.14-.42,1.53,1.53,0,0,0-.12-.46L61,11.87Z" transform="translate(0 -0.75)"/>
      <path class="a5a4a148-0a41-49cd-872f-d1f028450e2f" d="M79.8,18.91c0,1,0,1.88.08,2.64H78.32L78.22,20h0a3.64,3.64,0,0,1-3.2,1.8c-1.52,0-3.34-.84-3.34-4.24V11.87H73.4v5.36c0,1.84.56,3.08,2.16,3.08a2.54,2.54,0,0,0,2.32-1.6,2.57,2.57,0,0,0,.16-.9V11.87H79.8Z" transform="translate(0 -0.75)"/>
      <path class="aa632fdb-b9a7-40a1-aac5-695eea10513c" d="M82.48,19.75a4.61,4.61,0,0,0,2.32.7c1.28,0,1.88-.64,1.88-1.44s-.5-1.3-1.8-1.78c-1.74-.62-2.56-1.58-2.56-2.74,0-1.56,1.26-2.84,3.34-2.84a4.83,4.83,0,0,1,2.38.6l-.44,1.28a3.77,3.77,0,0,0-2-.56c-1,0-1.62.6-1.62,1.32s.58,1.16,1.84,1.64c1.68.64,2.54,1.48,2.54,2.92,0,1.7-1.32,2.9-3.62,2.9A5.49,5.49,0,0,1,82,21.09Z" transform="translate(0 -0.75)"/>
      <path class="aa632fdb-b9a7-40a1-aac5-695eea10513c" d="M90.63,7.35H92.4v6h0a3.27,3.27,0,0,1,1.26-1.24,3.62,3.62,0,0,1,1.8-.5c1.3,0,3.38.8,3.38,4.14v5.76H97.12V16c0-1.56-.58-2.88-2.24-2.88a2.53,2.53,0,0,0-2.36,1.76,2.13,2.13,0,0,0-.12.84v5.84H90.63Z" transform="translate(0 -0.75)"/>
      <path class="a5a4a148-0a41-49cd-872f-d1f028450e2f" d="M106,8.07h1.74v6.5h0c.37-.52.73-1,1.07-1.44L113,8.07h2.16l-4.88,5.72,5.26,7.76H113.5l-4.44-6.62-1.28,1.48v5.14H106Z" transform="translate(0 -0.75)"/>
      <path class="a5a4a148-0a41-49cd-872f-d1f028450e2f" d="M124.8,18.91c0,1,0,1.88.08,2.64h-1.56l-.1-1.58h0a3.64,3.64,0,0,1-3.2,1.8c-1.52,0-3.35-.84-3.35-4.24V11.87h1.77v5.36c0,1.84.56,3.08,2.16,3.08a2.54,2.54,0,0,0,2.32-1.6,2.57,2.57,0,0,0,.16-.9V11.87h1.76Z" transform="translate(0 -0.75)"/>
      <path class="a5a4a148-0a41-49cd-872f-d1f028450e2f" d="M127.71,14.49c0-1,0-1.82-.08-2.62h1.54l.08,1.56h.06a3.34,3.34,0,0,1,3.05-1.78,2.86,2.86,0,0,1,2.74,1.94h0a4,4,0,0,1,1.08-1.26,3.3,3.3,0,0,1,2.14-.68c1.28,0,3.18.84,3.18,4.2v5.7h-1.72V16.07c0-1.86-.68-3-2.1-3a2.28,2.28,0,0,0-2.08,1.6,2.9,2.9,0,0,0-.14.88v6h-1.72v-5.8c0-1.54-.68-2.66-2-2.66a2.42,2.42,0,0,0-2.18,1.76,2.43,2.43,0,0,0-.14.86v5.84h-1.72Z" transform="translate(0 -0.75)"/>
      <path class="b497e5aa-d830-4bc8-9978-e510cd3a0119" d="M149.75,21.55l-.13-1.22h-.07a3.61,3.61,0,0,1-3,1.44,2.76,2.76,0,0,1-3-2.78c0-2.34,2.08-3.62,5.83-3.6v-.2A2,2,0,0,0,147.25,13a4.82,4.82,0,0,0-2.52.72l-.4-1.16a6,6,0,0,1,3.18-.86c3,0,3.69,2,3.69,4v3.62a13.63,13.63,0,0,0,.16,2.32Zm-.25-4.94c-1.93,0-4.11.3-4.11,2.18a1.56,1.56,0,0,0,1.66,1.68,2.4,2.4,0,0,0,2.34-1.62,1.59,1.59,0,0,0,.11-.56Z" transform="translate(0 -0.75)"/>
      <path class="b497e5aa-d830-4bc8-9978-e510cd3a0119" d="M154,14.89c0-1.14,0-2.12-.08-3h1.54l.06,1.9h.08a2.9,2.9,0,0,1,2.68-2.12,1.9,1.9,0,0,1,.5.06v1.66a2.64,2.64,0,0,0-.6-.06,2.47,2.47,0,0,0-2.36,2.26,5,5,0,0,0-.08.82v5.16H154Z" transform="translate(0 -0.75)"/>
    </g>
  </g>
</svg>
