<svg width="32" height="32" xmlns="http://www.w3.org/2000/svg">

 <g>
  <title>background</title>
  <rect fill="none" id="canvas_background" height="402" width="582" y="-1" x="-1"/>
 </g>
 <g>
  <title>Layer 1</title>
  <path fill="#8261ee" id="svg_2" d="m12.954286,10.954286c0.6,0 1,-0.4 1,-1s-0.4,-1 -1,-1c-5,0 -9,4 -9,9.000001c0,2.799999 2.2,5 5,5s5,-2.200001 5,-5s-2.2,-5.000001 -5,-5.000001c-0.3,0 -0.7,0 -1,0.1c1.3,-1.3 3,-2.1 5,-2.1z"/>
  <path fill="#8261ee" id="svg_3" d="m22.954287,13c-0.299999,0 -0.700001,0 -1,0.1c1.299999,-1.3 3,-2.1 5,-2.1c0.6,0 1,-0.4 1,-1s-0.4,-1 -1,-1c-5,0 -9,4 -9,9c0,2.799999 2.200001,5 5,5s5,-2.200001 5,-5s-2.200001,-5 -5,-5z"/>
 </g>
</svg>