<svg id="fb812993-bf59-4621-a179-6c080d228f4e" data-name="Layer 1" xmlns="http://www.w3.org/2000/svg" viewBox="0 0 320 75.3">
  <defs>
    <style>
      .b658691c-53a3-4d02-89d8-13d2fd2d13c3 {
        fill: #fff;
      }
    </style>
  </defs>
  <rect class="b658691c-53a3-4d02-89d8-13d2fd2d13c3" x="305.6" y="44.2" width="14.4" height="14.1"/>
  <path class="b658691c-53a3-4d02-89d8-13d2fd2d13c3" d="M457.3,374.35V386H454c-7.5,0-11.2,3.9-11.2,11.5v19.6H430v-42.3h12.4v7.9c2-5.7,6-8.5,12.1-8.5C454.7,374.15,455.7,374.25,457.3,374.35Z" transform="translate(-146 -358.85)"/>
  <path class="b658691c-53a3-4d02-89d8-13d2fd2d13c3" d="M427.4,397.45c0-7.1-2-12.8-5.9-17-4.2-4.5-9.5-6.6-16-6.6s-11.9,2-15.8,6.1-6,9.3-6,16.1,2,12,6.1,16.1,9.3,6.1,15.9,6.1a23.7,23.7,0,0,0,13.4-3.8,17.32,17.32,0,0,0,7.3-10.4H414.3c-1.5,3.2-4.4,4.8-8.5,4.8a9.55,9.55,0,0,1-6.5-2.3,10.36,10.36,0,0,1-3.2-6.6h31.3Zm-31.4-5.8q1.35-8.4,9.3-8.4a8.81,8.81,0,0,1,6.3,2.2,10.22,10.22,0,0,1,3.1,6.1Z" transform="translate(-146 -358.85)"/>
  <path class="b658691c-53a3-4d02-89d8-13d2fd2d13c3" d="M381.2,389.45v27.7H368.4V392c0-4.8-2.3-7.2-6.8-7.2a7.76,7.76,0,0,0-5.7,2.3,9,9,0,0,0-2.3,6.5v23.6H340.8v-42.3h12.5v6a15.38,15.38,0,0,1,13.3-7c4.5,0,8.1,1.4,10.6,4.1C379.9,380.65,381.2,384.45,381.2,389.45Z" transform="translate(-146 -358.85)"/>
  <path class="b658691c-53a3-4d02-89d8-13d2fd2d13c3" d="M324.3,374.75v5.7c-2.8-4.4-7-6.6-12.7-6.6a16.92,16.92,0,0,0-13.4,5.8q-5.1,6-5.1,15.3c0,6.3,1.7,11.4,5.2,15.3a17.21,17.21,0,0,0,13.5,5.9c5.4,0,9.5-2,12.1-6v6.1a8,8,0,0,1-2.2,6.1,9,9,0,0,1-6.4,2.2c-5.1,0-7.8-2-8.1-5.9H294.6a15.11,15.11,0,0,0,5.7,11.4c3.6,2.8,8.5,4.1,14.8,4.1,6.8,0,12.2-1.6,16-4.9s5.7-7.7,5.7-13.5v-41Zm-2.5,28.4a8.2,8.2,0,0,1-6.7,2.8,8,8,0,0,1-6.6-2.8c-1.6-1.9-2.4-4.5-2.4-8s.8-6.2,2.4-8.2a8.2,8.2,0,0,1,6.6-2.9c3,0,5.2.9,6.8,2.8s2.3,4.6,2.3,8.1S323.4,401.25,321.8,403.15Z" transform="translate(-146 -358.85)"/>
  <rect class="b658691c-53a3-4d02-89d8-13d2fd2d13c3" x="132.2" y="0.4" width="12.2" height="10.8"/>
  <rect class="b658691c-53a3-4d02-89d8-13d2fd2d13c3" x="131.9" y="16" width="12.8" height="42.3"/>
  <path class="b658691c-53a3-4d02-89d8-13d2fd2d13c3" d="M276.6,404.75a11.52,11.52,0,0,1-5.3,10.1c-3.5,2.4-8.5,3.6-14.9,3.6-6.7,0-11.6-1.2-14.9-3.5s-5.1-6.1-5.5-11.2h12.6a6.42,6.42,0,0,0,2.2,4.8c1.2.9,3.2,1.4,5.9,1.4,4.7,0,7.1-1.4,7.1-4.1a3.53,3.53,0,0,0-1.6-3,14.24,14.24,0,0,0-5.7-1.7l-5.5-.9c-9.5-1.4-14.3-5.7-14.3-12.9a11.3,11.3,0,0,1,4.9-9.9c3.3-2.3,8-3.5,14.1-3.5,12.6,0,19.2,4.8,19.7,14.5H263.5q-.15-6-7.8-6c-4.3,0-6.5,1.3-6.5,4a3.22,3.22,0,0,0,1.5,2.8,11.25,11.25,0,0,0,4.7,1.5l6.3.9c5,.7,8.8,2.2,11.2,4.3S276.5,401,276.6,404.75Z" transform="translate(-146 -358.85)"/>
  <path class="b658691c-53a3-4d02-89d8-13d2fd2d13c3" d="M235.6,397.45c0-7.1-2-12.8-5.9-17-4-4.5-9.3-6.6-15.9-6.6s-11.9,2-15.8,6.1-6,9.3-6,16.1,2,12,6.1,16.1,9.3,6.1,15.9,6.1a23.7,23.7,0,0,0,13.4-3.8,17.32,17.32,0,0,0,7.3-10.4H222.5c-1.5,3.2-4.4,4.8-8.5,4.8a9.55,9.55,0,0,1-6.5-2.3,10.36,10.36,0,0,1-3.2-6.6h31.3Zm-31.2-5.8q1.35-8.4,9.3-8.4a8.81,8.81,0,0,1,6.3,2.2,10.22,10.22,0,0,1,3.1,6.1Z" transform="translate(-146 -358.85)"/>
  <path class="b658691c-53a3-4d02-89d8-13d2fd2d13c3" d="M176.8,358.85V380a14.44,14.44,0,0,0-12.4-6.1c-5.7,0-10.2,2-13.4,6s-5,9.4-5,16.1,1.7,12.2,5,16.1,7.8,6,13.4,6,9.9-2.2,12.7-6.5v5.5h12.5v-58.2Zm-8.8,49c-6,0-9-3.9-9-11.6,0-3.9.8-7,2.4-9.1A7.88,7.88,0,0,1,168,384c6.1,0,9.1,4,9.1,11.9C177.1,404,174,407.85,168,407.85Z" transform="translate(-146 -358.85)"/>
</svg>
