<svg width="31" height="29" viewBox="0 0 31 29" fill="none" xmlns="http://www.w3.org/2000/svg">
<path fill-rule="evenodd" clip-rule="evenodd" d="M29.68 18.699C29.6181 19.104 29.429 19.4787 29.14 19.769L22 26.939C21.8141 27.1265 21.5929 27.2753 21.3492 27.3768C21.1055 27.4783 20.8441 27.5306 20.58 27.5306C20.316 27.5306 20.0546 27.4783 19.8109 27.3768C19.5672 27.2753 19.346 27.1265 19.16 26.939L16 23.779L9.33003 17.119L7.76003 15.569L6.34003 14.119C6.15167 13.9318 6.00248 13.7089 5.90118 13.4634C5.79988 13.2179 5.7485 12.9546 5.75003 12.689V5.55903C5.75003 5.02859 5.96075 4.51989 6.33582 4.14481C6.71089 3.76974 7.2196 3.55903 7.75003 3.55903H14.91C15.1735 3.55354 15.4355 3.6002 15.6809 3.6963C15.9263 3.7924 16.1503 3.93607 16.34 4.11903L29.13 16.939C29.3449 17.1514 29.506 17.4119 29.6 17.699C29.7204 18.0182 29.7481 18.3648 29.68 18.699Z" stroke="white" stroke-width="1.5" stroke-miterlimit="10"/>
<path d="M11.4902 11.0586C12.4567 11.0586 13.2402 10.2751 13.2402 9.30859C13.2402 8.3421 12.4567 7.55859 11.4902 7.55859C10.5237 7.55859 9.74023 8.3421 9.74023 9.30859C9.74023 10.2751 10.5237 11.0586 11.4902 11.0586Z" stroke="white" stroke-miterlimit="10"/>
<path fill-rule="evenodd" clip-rule="evenodd" d="M10 8.00225V9C8.38002 9 7.77002 8.12198 7.00003 4.01127C6.29004 0.618935 2.78007 0.149995 1.44009 2.28517C0.370097 3.98134 1.46009 7.00451 3.00007 7.00451V8.00225C0.570095 8.00225 -0.86989 4.01127 0.580095 1.75637C2.40008 -1.11714 7.09003 -0.49854 8.00002 3.86161C8.68001 7.51336 9.00001 8.00225 10 8.00225Z" fill="white"/>
</svg>
