<svg width="34" height="31" viewBox="0 0 34 31" fill="none" xmlns="http://www.w3.org/2000/svg">
<path fill-rule="evenodd" clip-rule="evenodd" d="M0.804688 9.76953H2.70903V26.9924C2.74357 27.5191 2.98145 28.0121 3.37295 28.367C3.7702 28.7271 4.29351 28.9158 4.82916 28.8923L4.85008 28.8914H29.856L29.8828 28.8929C30.1502 28.908 30.4178 28.8702 30.6705 28.7816C30.9232 28.6931 31.156 28.5556 31.3554 28.3769C31.5549 28.1983 31.7171 27.982 31.8328 27.7405C31.9452 27.506 32.0116 27.2521 32.0284 26.9927V9.76953H33.9328V27.0461L33.9314 27.0715C33.9037 27.5891 33.7742 28.0961 33.5502 28.5635C33.3262 29.031 33.0121 29.4496 32.626 29.7954C32.2399 30.1412 31.7894 30.4075 31.3002 30.5789C30.8201 30.7471 30.312 30.8207 29.8041 30.7957H4.89052C3.86142 30.8351 2.85743 30.47 2.09397 29.7779C1.32498 29.0808 0.86216 28.1085 0.806079 27.0721L0.804688 27.0464V9.76953Z" fill="white"/>
<path fill-rule="evenodd" clip-rule="evenodd" d="M4.81801 0.800781H29.86L29.8683 0.800937C30.9484 0.821067 31.9766 1.26822 32.7278 2.04454C33.4775 2.81924 33.8904 3.85878 33.8769 4.93653V9.78479H32.0846V4.92421L32.0847 4.91784C32.0933 4.3116 31.8614 3.72662 31.4398 3.29091C31.02 2.85704 30.446 2.60636 29.8426 2.5931H4.8354C4.232 2.60636 3.65804 2.85704 3.2382 3.29091C2.81658 3.72662 2.58471 4.3116 2.59333 4.91784L2.59343 4.92421V9.78479H0.801104V4.93657C0.787554 3.85881 1.20053 2.81925 1.95018 2.04454C2.70141 1.26822 3.72956 0.821067 4.80966 0.800937L4.81801 0.800781Z" fill="white"/>
<path d="M8.70936 7.01441C9.33627 7.01441 9.84449 6.5062 9.84449 5.87928C9.84449 5.25236 9.33627 4.74414 8.70936 4.74414C8.08244 4.74414 7.57422 5.25236 7.57422 5.87928C7.57422 6.5062 8.08244 7.01441 8.70936 7.01441Z" fill="white"/>
<path fill-rule="evenodd" clip-rule="evenodd" d="M8.70994 5.02655C8.23975 5.02655 7.85858 5.40772 7.85858 5.87791C7.85858 6.34809 8.23975 6.72926 8.70994 6.72926C9.18013 6.72926 9.56129 6.34809 9.56129 5.87791C9.56129 5.40772 9.18013 5.02655 8.70994 5.02655ZM7.29102 5.87791C7.29102 5.09426 7.92629 4.45898 8.70994 4.45898C9.49359 4.45898 10.1289 5.09426 10.1289 5.87791C10.1289 6.66155 9.49359 7.29683 8.70994 7.29683C7.92629 7.29683 7.29102 6.66155 7.29102 5.87791Z" fill="white"/>
<path d="M12.1234 7.01441C12.7503 7.01441 13.2586 6.5062 13.2586 5.87928C13.2586 5.25236 12.7503 4.74414 12.1234 4.74414C11.4965 4.74414 10.9883 5.25236 10.9883 5.87928C10.9883 6.5062 11.4965 7.01441 12.1234 7.01441Z" fill="white"/>
<path fill-rule="evenodd" clip-rule="evenodd" d="M12.124 5.02655C11.6538 5.02655 11.2726 5.40772 11.2726 5.87791C11.2726 6.34809 11.6538 6.72926 12.124 6.72926C12.5942 6.72926 12.9754 6.34809 12.9754 5.87791C12.9754 5.40772 12.5942 5.02655 12.124 5.02655ZM10.7051 5.87791C10.7051 5.09426 11.3404 4.45898 12.124 4.45898C12.9076 4.45898 13.5429 5.09426 13.5429 5.87791C13.5429 6.66155 12.9076 7.29683 12.124 7.29683C11.3404 7.29683 10.7051 6.66155 10.7051 5.87791Z" fill="white"/>
<path d="M5.29725 7.01441C5.92416 7.01441 6.43238 6.5062 6.43238 5.87928C6.43238 5.25236 5.92416 4.74414 5.29725 4.74414C4.67033 4.74414 4.16211 5.25236 4.16211 5.87928C4.16211 6.5062 4.67033 7.01441 5.29725 7.01441Z" fill="white"/>
<path fill-rule="evenodd" clip-rule="evenodd" d="M5.29783 5.02655C4.82764 5.02655 4.44647 5.40772 4.44647 5.87791C4.44647 6.34809 4.82764 6.72926 5.29783 6.72926C5.76802 6.72926 6.14918 6.34809 6.14918 5.87791C6.14918 5.40772 5.76802 5.02655 5.29783 5.02655ZM3.87891 5.87791C3.87891 5.09426 4.51418 4.45898 5.29783 4.45898C6.08148 4.45898 6.71675 5.09426 6.71675 5.87791C6.71675 6.66155 6.08148 7.29683 5.29783 7.29683C4.51418 7.29683 3.87891 6.66155 3.87891 5.87791Z" fill="white"/>
<path fill-rule="evenodd" clip-rule="evenodd" d="M1.69727 9.30664H33.1525V10.8002H1.69727V9.30664Z" fill="white"/>
</svg>
